<mxfile host="app.diagrams.net" modified="2024-01-01T14:05:28.762Z" agent="Mozilla/5.0 (Windows NT 10.0; Win64; x64) AppleWebKit/537.36 (KHTML, like Gecko) Chrome/120.0.0.0 Safari/537.36" etag="q0zpeMMyDE6x7Nwr7D6M" version="22.1.16" type="google">
  <diagram name="Pagina-1" id="sDBWxJY-DbSgJdli4Ivp">
    <mxGraphModel grid="1" page="0" gridSize="10" guides="1" tooltips="1" connect="1" arrows="1" fold="1" pageScale="1" pageWidth="827" pageHeight="1169" math="0" shadow="0">
      <root>
        <mxCell id="0" />
        <mxCell id="1" parent="0" />
        <mxCell id="uJgw5pNOBxBgT4Dnz1Ql-39" value="" style="rounded=0;whiteSpace=wrap;html=1;" vertex="1" parent="1">
          <mxGeometry x="440" y="270" width="120" height="150" as="geometry" />
        </mxCell>
        <mxCell id="uJgw5pNOBxBgT4Dnz1Ql-37" value="" style="rounded=0;whiteSpace=wrap;html=1;" vertex="1" parent="1">
          <mxGeometry x="210" y="180" width="350" height="90" as="geometry" />
        </mxCell>
        <mxCell id="uJgw5pNOBxBgT4Dnz1Ql-22" value="" style="rounded=0;whiteSpace=wrap;html=1;" vertex="1" parent="1">
          <mxGeometry x="20" y="180" width="190" height="240" as="geometry" />
        </mxCell>
        <mxCell id="uJgw5pNOBxBgT4Dnz1Ql-2" value="Educator" style="shape=umlActor;verticalLabelPosition=bottom;verticalAlign=top;html=1;outlineConnect=0;" vertex="1" parent="1">
          <mxGeometry x="-60" y="350" width="30" height="60" as="geometry" />
        </mxCell>
        <mxCell id="uJgw5pNOBxBgT4Dnz1Ql-5" value="Student" style="shape=umlActor;verticalLabelPosition=bottom;verticalAlign=top;html=1;outlineConnect=0;" vertex="1" parent="1">
          <mxGeometry x="-60" y="190" width="30" height="60" as="geometry" />
        </mxCell>
        <mxCell id="uJgw5pNOBxBgT4Dnz1Ql-11" value="" style="shape=mxgraph.signs.tech.computer;html=1;pointerEvents=1;fillColor=#000000;strokeColor=none;verticalLabelPosition=bottom;verticalAlign=top;align=center;" vertex="1" parent="1">
          <mxGeometry x="40" y="200" width="40" height="40" as="geometry" />
        </mxCell>
        <mxCell id="uJgw5pNOBxBgT4Dnz1Ql-15" value="" style="shape=mxgraph.signs.tech.computer;html=1;pointerEvents=1;fillColor=#000000;strokeColor=none;verticalLabelPosition=bottom;verticalAlign=top;align=center;" vertex="1" parent="1">
          <mxGeometry x="40" y="360" width="40" height="40" as="geometry" />
        </mxCell>
        <mxCell id="uJgw5pNOBxBgT4Dnz1Ql-17" value="Static web server" style="rounded=1;whiteSpace=wrap;html=1;" vertex="1" parent="1">
          <mxGeometry x="130" y="285" width="70" height="30" as="geometry" />
        </mxCell>
        <mxCell id="uJgw5pNOBxBgT4Dnz1Ql-21" style="edgeStyle=orthogonalEdgeStyle;rounded=0;orthogonalLoop=1;jettySize=auto;html=1;entryX=0;entryY=0.5;entryDx=0;entryDy=0;endArrow=none;endFill=0;exitX=1;exitY=0.5;exitDx=0;exitDy=0;" edge="1" parent="1" source="LvV7ADSzp7npgohqQpUz-3" target="uJgw5pNOBxBgT4Dnz1Ql-17">
          <mxGeometry relative="1" as="geometry" />
        </mxCell>
        <mxCell id="uJgw5pNOBxBgT4Dnz1Ql-20" style="edgeStyle=orthogonalEdgeStyle;rounded=0;orthogonalLoop=1;jettySize=auto;html=1;entryX=0.5;entryY=0;entryDx=0;entryDy=0;entryPerimeter=0;endArrow=none;endFill=0;exitX=0.5;exitY=1;exitDx=0;exitDy=0;" edge="1" parent="1" source="LvV7ADSzp7npgohqQpUz-3" target="uJgw5pNOBxBgT4Dnz1Ql-15">
          <mxGeometry relative="1" as="geometry" />
        </mxCell>
        <mxCell id="uJgw5pNOBxBgT4Dnz1Ql-23" value="Firewall" style="ellipse;whiteSpace=wrap;html=1;aspect=fixed;dashed=1;" vertex="1" parent="1">
          <mxGeometry x="185" y="195" width="50" height="50" as="geometry" />
        </mxCell>
        <mxCell id="uJgw5pNOBxBgT4Dnz1Ql-24" style="edgeStyle=orthogonalEdgeStyle;rounded=0;orthogonalLoop=1;jettySize=auto;html=1;entryX=0.995;entryY=0.5;entryDx=0;entryDy=0;entryPerimeter=0;endArrow=none;endFill=0;" edge="1" parent="1" source="uJgw5pNOBxBgT4Dnz1Ql-23" target="uJgw5pNOBxBgT4Dnz1Ql-11">
          <mxGeometry relative="1" as="geometry" />
        </mxCell>
        <mxCell id="uJgw5pNOBxBgT4Dnz1Ql-26" value="Application server" style="rounded=1;whiteSpace=wrap;html=1;" vertex="1" parent="1">
          <mxGeometry x="360" y="205" width="80" height="30" as="geometry" />
        </mxCell>
        <mxCell id="uJgw5pNOBxBgT4Dnz1Ql-27" value="Firewall" style="ellipse;whiteSpace=wrap;html=1;aspect=fixed;dashed=1;" vertex="1" parent="1">
          <mxGeometry x="475" y="245" width="50" height="50" as="geometry" />
        </mxCell>
        <mxCell id="uJgw5pNOBxBgT4Dnz1Ql-28" value="DBMS" style="rounded=1;whiteSpace=wrap;html=1;" vertex="1" parent="1">
          <mxGeometry x="465" y="310" width="70" height="30" as="geometry" />
        </mxCell>
        <mxCell id="uJgw5pNOBxBgT4Dnz1Ql-29" value="DB" style="shape=cylinder3;whiteSpace=wrap;html=1;boundedLbl=1;backgroundOutline=1;size=15;" vertex="1" parent="1">
          <mxGeometry x="472.5" y="355" width="55" height="55" as="geometry" />
        </mxCell>
        <mxCell id="uJgw5pNOBxBgT4Dnz1Ql-30" style="edgeStyle=orthogonalEdgeStyle;rounded=0;orthogonalLoop=1;jettySize=auto;html=1;endArrow=none;endFill=0;exitX=0.5;exitY=1;exitDx=0;exitDy=0;entryX=0.5;entryY=0;entryDx=0;entryDy=0;" edge="1" parent="1" source="uJgw5pNOBxBgT4Dnz1Ql-27" target="uJgw5pNOBxBgT4Dnz1Ql-28">
          <mxGeometry relative="1" as="geometry">
            <mxPoint x="750" y="220" as="targetPoint" />
          </mxGeometry>
        </mxCell>
        <mxCell id="uJgw5pNOBxBgT4Dnz1Ql-35" value="Presentation layer" style="text;html=1;strokeColor=none;fillColor=none;align=center;verticalAlign=middle;whiteSpace=wrap;rounded=0;" vertex="1" parent="1">
          <mxGeometry x="20" y="420" width="190" height="20" as="geometry" />
        </mxCell>
        <mxCell id="uJgw5pNOBxBgT4Dnz1Ql-38" value="Business logic layer" style="text;html=1;strokeColor=none;fillColor=none;align=center;verticalAlign=middle;whiteSpace=wrap;rounded=0;" vertex="1" parent="1">
          <mxGeometry x="210" y="270" width="230" height="20" as="geometry" />
        </mxCell>
        <mxCell id="uJgw5pNOBxBgT4Dnz1Ql-40" value="Data layer" style="text;html=1;strokeColor=none;fillColor=none;align=center;verticalAlign=middle;whiteSpace=wrap;rounded=0;" vertex="1" parent="1">
          <mxGeometry x="440" y="420" width="120" height="20" as="geometry" />
        </mxCell>
        <mxCell id="uJgw5pNOBxBgT4Dnz1Ql-41" style="edgeStyle=orthogonalEdgeStyle;rounded=0;orthogonalLoop=1;jettySize=auto;html=1;entryX=0;entryY=0.5;entryDx=0;entryDy=0;entryPerimeter=0;" edge="1" parent="1" source="uJgw5pNOBxBgT4Dnz1Ql-5" target="uJgw5pNOBxBgT4Dnz1Ql-11">
          <mxGeometry relative="1" as="geometry" />
        </mxCell>
        <mxCell id="uJgw5pNOBxBgT4Dnz1Ql-42" style="edgeStyle=orthogonalEdgeStyle;rounded=0;orthogonalLoop=1;jettySize=auto;html=1;entryX=0;entryY=0.5;entryDx=0;entryDy=0;entryPerimeter=0;" edge="1" parent="1" source="uJgw5pNOBxBgT4Dnz1Ql-2" target="uJgw5pNOBxBgT4Dnz1Ql-15">
          <mxGeometry relative="1" as="geometry" />
        </mxCell>
        <mxCell id="uJgw5pNOBxBgT4Dnz1Ql-48" value="SMS Service" style="text;html=1;strokeColor=none;fillColor=none;align=center;verticalAlign=middle;whiteSpace=wrap;rounded=0;" vertex="1" parent="1">
          <mxGeometry x="170" y="100" width="80" height="20" as="geometry" />
        </mxCell>
        <mxCell id="uJgw5pNOBxBgT4Dnz1Ql-49" value="Calendar API" style="text;html=1;strokeColor=none;fillColor=none;align=center;verticalAlign=middle;whiteSpace=wrap;rounded=0;" vertex="1" parent="1">
          <mxGeometry x="480" y="100" width="80" height="20" as="geometry" />
        </mxCell>
        <mxCell id="uJgw5pNOBxBgT4Dnz1Ql-50" value="Email service" style="text;html=1;strokeColor=none;fillColor=none;align=center;verticalAlign=middle;whiteSpace=wrap;rounded=0;" vertex="1" parent="1">
          <mxGeometry x="330" y="100" width="80" height="20" as="geometry" />
        </mxCell>
        <mxCell id="uJgw5pNOBxBgT4Dnz1Ql-51" value="GitHub API" style="text;html=1;strokeColor=none;fillColor=none;align=center;verticalAlign=middle;whiteSpace=wrap;rounded=0;" vertex="1" parent="1">
          <mxGeometry x="20" y="100" width="80" height="20" as="geometry" />
        </mxCell>
        <mxCell id="uJgw5pNOBxBgT4Dnz1Ql-52" value="" style="shape=providedRequiredInterface;html=1;verticalLabelPosition=bottom;sketch=0;rotation=90;" vertex="1" parent="1">
          <mxGeometry x="510" y="120" width="20" height="20" as="geometry" />
        </mxCell>
        <mxCell id="LvV7ADSzp7npgohqQpUz-17" style="edgeStyle=orthogonalEdgeStyle;rounded=0;orthogonalLoop=1;jettySize=auto;html=1;entryX=0.5;entryY=0;entryDx=0;entryDy=0;endArrow=none;endFill=0;dashed=1;dashPattern=1 1;" edge="1" parent="1" target="uJgw5pNOBxBgT4Dnz1Ql-26">
          <mxGeometry relative="1" as="geometry">
            <Array as="points">
              <mxPoint x="60" y="160" />
              <mxPoint x="400" y="160" />
            </Array>
            <mxPoint x="60" y="140" as="sourcePoint" />
          </mxGeometry>
        </mxCell>
        <mxCell id="LvV7ADSzp7npgohqQpUz-1" value="Web app" style="text;html=1;strokeColor=none;fillColor=none;align=center;verticalAlign=middle;whiteSpace=wrap;rounded=0;" vertex="1" parent="1">
          <mxGeometry x="20" y="180" width="80" height="20" as="geometry" />
        </mxCell>
        <mxCell id="LvV7ADSzp7npgohqQpUz-2" value="Web app" style="text;html=1;strokeColor=none;fillColor=none;align=center;verticalAlign=middle;whiteSpace=wrap;rounded=0;" vertex="1" parent="1">
          <mxGeometry x="20" y="400" width="80" height="20" as="geometry" />
        </mxCell>
        <mxCell id="LvV7ADSzp7npgohqQpUz-3" value="Load balancer" style="ellipse;whiteSpace=wrap;html=1;" vertex="1" parent="1">
          <mxGeometry x="25" y="275" width="70" height="50" as="geometry" />
        </mxCell>
        <mxCell id="LvV7ADSzp7npgohqQpUz-4" style="edgeStyle=orthogonalEdgeStyle;rounded=0;orthogonalLoop=1;jettySize=auto;html=1;entryX=0.5;entryY=0;entryDx=0;entryDy=0;entryPerimeter=0;endArrow=none;endFill=0;exitX=0.5;exitY=1;exitDx=0;exitDy=0;" edge="1" parent="1">
          <mxGeometry relative="1" as="geometry">
            <mxPoint x="59.86" y="240" as="sourcePoint" />
            <mxPoint x="59.86" y="275" as="targetPoint" />
          </mxGeometry>
        </mxCell>
        <mxCell id="LvV7ADSzp7npgohqQpUz-5" value="Load balancer" style="ellipse;whiteSpace=wrap;html=1;" vertex="1" parent="1">
          <mxGeometry x="260" y="195" width="70" height="50" as="geometry" />
        </mxCell>
        <mxCell id="LvV7ADSzp7npgohqQpUz-6" style="edgeStyle=orthogonalEdgeStyle;rounded=0;orthogonalLoop=1;jettySize=auto;html=1;entryX=1;entryY=0.5;entryDx=0;entryDy=0;endArrow=none;endFill=0;exitX=0;exitY=0.5;exitDx=0;exitDy=0;" edge="1" parent="1" source="LvV7ADSzp7npgohqQpUz-5" target="uJgw5pNOBxBgT4Dnz1Ql-23">
          <mxGeometry relative="1" as="geometry">
            <mxPoint x="195" y="230" as="sourcePoint" />
            <mxPoint x="90" y="230" as="targetPoint" />
          </mxGeometry>
        </mxCell>
        <mxCell id="LvV7ADSzp7npgohqQpUz-7" style="edgeStyle=orthogonalEdgeStyle;rounded=0;orthogonalLoop=1;jettySize=auto;html=1;entryX=1;entryY=0.5;entryDx=0;entryDy=0;endArrow=none;endFill=0;exitX=0;exitY=0.5;exitDx=0;exitDy=0;" edge="1" parent="1" source="uJgw5pNOBxBgT4Dnz1Ql-26" target="LvV7ADSzp7npgohqQpUz-5">
          <mxGeometry relative="1" as="geometry">
            <mxPoint x="275" y="230" as="sourcePoint" />
            <mxPoint x="245" y="230" as="targetPoint" />
          </mxGeometry>
        </mxCell>
        <mxCell id="LvV7ADSzp7npgohqQpUz-8" style="edgeStyle=orthogonalEdgeStyle;rounded=0;orthogonalLoop=1;jettySize=auto;html=1;endArrow=none;endFill=0;entryX=0.5;entryY=0;entryDx=0;entryDy=0;entryPerimeter=0;" edge="1" parent="1" target="uJgw5pNOBxBgT4Dnz1Ql-29">
          <mxGeometry relative="1" as="geometry">
            <mxPoint x="510" y="320" as="targetPoint" />
            <mxPoint x="500" y="340" as="sourcePoint" />
          </mxGeometry>
        </mxCell>
        <mxCell id="LvV7ADSzp7npgohqQpUz-9" style="edgeStyle=orthogonalEdgeStyle;rounded=0;orthogonalLoop=1;jettySize=auto;html=1;endArrow=none;endFill=0;exitX=1;exitY=0.5;exitDx=0;exitDy=0;entryX=0.5;entryY=0;entryDx=0;entryDy=0;" edge="1" parent="1" source="uJgw5pNOBxBgT4Dnz1Ql-26" target="uJgw5pNOBxBgT4Dnz1Ql-27">
          <mxGeometry relative="1" as="geometry">
            <mxPoint x="510" y="320" as="targetPoint" />
            <mxPoint x="510" y="305" as="sourcePoint" />
          </mxGeometry>
        </mxCell>
        <mxCell id="LvV7ADSzp7npgohqQpUz-18" value="" style="endArrow=none;html=1;rounded=0;entryX=1;entryY=0.5;entryDx=0;entryDy=0;entryPerimeter=0;dashed=1;dashPattern=1 1;" edge="1" parent="1" target="uJgw5pNOBxBgT4Dnz1Ql-52">
          <mxGeometry width="50" height="50" relative="1" as="geometry">
            <mxPoint x="400" y="160" as="sourcePoint" />
            <mxPoint x="200" y="50" as="targetPoint" />
            <Array as="points">
              <mxPoint x="520" y="160" />
            </Array>
          </mxGeometry>
        </mxCell>
        <mxCell id="LvV7ADSzp7npgohqQpUz-19" value="" style="endArrow=none;html=1;rounded=0;entryX=1;entryY=0.5;entryDx=0;entryDy=0;entryPerimeter=0;dashed=1;dashPattern=1 1;" edge="1" parent="1">
          <mxGeometry width="50" height="50" relative="1" as="geometry">
            <mxPoint x="370" y="160" as="sourcePoint" />
            <mxPoint x="370" y="140" as="targetPoint" />
            <Array as="points">
              <mxPoint x="370" y="150" />
            </Array>
          </mxGeometry>
        </mxCell>
        <mxCell id="LvV7ADSzp7npgohqQpUz-20" value="" style="endArrow=none;html=1;rounded=0;entryX=1;entryY=0.5;entryDx=0;entryDy=0;entryPerimeter=0;dashed=1;dashPattern=1 1;" edge="1" parent="1">
          <mxGeometry width="50" height="50" relative="1" as="geometry">
            <mxPoint x="209.78" y="160" as="sourcePoint" />
            <mxPoint x="209.78" y="140" as="targetPoint" />
            <Array as="points">
              <mxPoint x="209.78" y="150" />
            </Array>
          </mxGeometry>
        </mxCell>
        <mxCell id="5rB5XFWXq177zT4U37bm-2" value="" style="shape=providedRequiredInterface;html=1;verticalLabelPosition=bottom;sketch=0;rotation=90;fillColor=#e1d5e7;strokeColor=#9673a6;" vertex="1" parent="1">
          <mxGeometry x="360" y="120" width="20" height="20" as="geometry" />
        </mxCell>
        <mxCell id="5rB5XFWXq177zT4U37bm-3" value="" style="shape=providedRequiredInterface;html=1;verticalLabelPosition=bottom;sketch=0;rotation=90;fillColor=#dae8fc;strokeColor=#6c8ebf;" vertex="1" parent="1">
          <mxGeometry x="200" y="120" width="20" height="20" as="geometry" />
        </mxCell>
        <mxCell id="5rB5XFWXq177zT4U37bm-4" value="" style="shape=providedRequiredInterface;html=1;verticalLabelPosition=bottom;sketch=0;rotation=90;fillColor=#f8cecc;strokeColor=#b85450;" vertex="1" parent="1">
          <mxGeometry x="50" y="120" width="20" height="20" as="geometry" />
        </mxCell>
      </root>
    </mxGraphModel>
  </diagram>
</mxfile>
